<svg height="384" viewBox="0 0 432 288" width="576" xmlns="http://www.w3.org/2000/svg" xmlns:xlink="http://www.w3.org/1999/xlink"><defs><style>*{stroke-linecap:butt;stroke-linejoin:round}</style></defs><g id="figure_1"><path d="M0 288h432V0H0z" fill="#fff" id="patch_1"/><g id="axes_1"><path d="M54 256.32h334.8V34.56H54z" fill="#fff" id="patch_2"/><g id="PathCollection_1"><defs><path d="M0 3a3.0001 3.0001 0 0 0 2.1213-5.1213A3.0001 3.0001 0 0 0-3 0a3.0001 3.0001 0 0 0 3 3z" id="C0_0_b55b7e4afb"/></defs><g clip-path="url(#p4ef1701021)"><use x="373.45" xlink:href="#C0_0_b55b7e4afb" y="121.8707" fill="#fefe01" stroke="#000"/></g><g clip-path="url(#p4ef1701021)"><use x="279.1064" xlink:href="#C0_0_b55b7e4afb" y="128.9527" fill="#fefe01" stroke="#000"/></g><g clip-path="url(#p4ef1701021)"><use x="167.482" xlink:href="#C0_0_b55b7e4afb" y="227.3674" fill="#0002fd" stroke="#000"/></g><g clip-path="url(#p4ef1701021)"><use x="205.3534" xlink:href="#C0_0_b55b7e4afb" y="146.4064" fill="#00fc00" stroke="#000"/></g><g clip-path="url(#p4ef1701021)"><use x="127.6513" xlink:href="#C0_0_b55b7e4afb" y="161.129" fill="red" stroke="#000"/></g><g clip-path="url(#p4ef1701021)"><use x="302.7378" xlink:href="#C0_0_b55b7e4afb" y="82.0429" stroke="#000"/></g><g clip-path="url(#p4ef1701021)"><use x="323.5394" xlink:href="#C0_0_b55b7e4afb" y="90.3855" stroke="#000"/></g><g clip-path="url(#p4ef1701021)"><use x="215.971" xlink:href="#C0_0_b55b7e4afb" y="156.8711" fill="#00fc00" stroke="#000"/></g><g clip-path="url(#p4ef1701021)"><use x="132.266" xlink:href="#C0_0_b55b7e4afb" y="207.8445" fill="#0002fd" stroke="#000"/></g><g clip-path="url(#p4ef1701021)"><use x="220.9933" xlink:href="#C0_0_b55b7e4afb" y="207.2458" fill="#0002fd" stroke="#000"/></g><g clip-path="url(#p4ef1701021)"><use x="190.3707" xlink:href="#C0_0_b55b7e4afb" y="161.4701" fill="#00fc00" stroke="#000"/></g><g clip-path="url(#p4ef1701021)"><use x="330.6586" xlink:href="#C0_0_b55b7e4afb" y="122.6135" fill="#fefe01" stroke="#000"/></g><g clip-path="url(#p4ef1701021)"><use x="259.9261" xlink:href="#C0_0_b55b7e4afb" y="99.7807" stroke="#000"/></g><g clip-path="url(#p4ef1701021)"><use x="234.182" xlink:href="#C0_0_b55b7e4afb" y="117.5113" stroke="#000"/></g><g clip-path="url(#p4ef1701021)"><use x="127.8069" xlink:href="#C0_0_b55b7e4afb" y="128.6658" fill="red" stroke="#000"/></g><g clip-path="url(#p4ef1701021)"><use x="312.049" xlink:href="#C0_0_b55b7e4afb" y="97.035" fill="#fefe01" stroke="#000"/></g><g clip-path="url(#p4ef1701021)"><use x="185.9535" xlink:href="#C0_0_b55b7e4afb" y="206.2811" fill="#0002fd" stroke="#000"/></g><g clip-path="url(#p4ef1701021)"><use x="168.6057" xlink:href="#C0_0_b55b7e4afb" y="214.2621" fill="#0002fd" stroke="#000"/></g><g clip-path="url(#p4ef1701021)"><use x="284.6165" xlink:href="#C0_0_b55b7e4afb" y="121.442" fill="#fefe01" stroke="#000"/></g><g clip-path="url(#p4ef1701021)"><use x="171.3814" xlink:href="#C0_0_b55b7e4afb" y="214.473" fill="#0002fd" stroke="#000"/></g><g clip-path="url(#p4ef1701021)"><use x="251.3842" xlink:href="#C0_0_b55b7e4afb" y="72.751" stroke="#000"/></g><g clip-path="url(#p4ef1701021)"><use x="199.1217" xlink:href="#C0_0_b55b7e4afb" y="195.8268" fill="#0002fd" stroke="#000"/></g><g clip-path="url(#p4ef1701021)"><use x="180.0193" xlink:href="#C0_0_b55b7e4afb" y="229.9877" fill="#0002fd" stroke="#000"/></g><g clip-path="url(#p4ef1701021)"><use x="205.9364" xlink:href="#C0_0_b55b7e4afb" y="165.2134" fill="#00fc00" stroke="#000"/></g><g clip-path="url(#p4ef1701021)"><use x="114.4713" xlink:href="#C0_0_b55b7e4afb" y="191.3568" fill="red" stroke="#000"/></g><g clip-path="url(#p4ef1701021)"><use x="351.1521" xlink:href="#C0_0_b55b7e4afb" y="95.7555" fill="#fefe01" stroke="#000"/></g><g clip-path="url(#p4ef1701021)"><use x="268.7226" xlink:href="#C0_0_b55b7e4afb" y="101.2688" stroke="#000"/></g><g clip-path="url(#p4ef1701021)"><use x="279.8039" xlink:href="#C0_0_b55b7e4afb" y="84.6298" stroke="#000"/></g><g clip-path="url(#p4ef1701021)"><use x="211.1521" xlink:href="#C0_0_b55b7e4afb" y="231.6079" fill="#0002fd" stroke="#000"/></g><g clip-path="url(#p4ef1701021)"><use x="178.5535" xlink:href="#C0_0_b55b7e4afb" y="178.6655" fill="#00fc00" stroke="#000"/></g><g clip-path="url(#p4ef1701021)"><use x="197.6635" xlink:href="#C0_0_b55b7e4afb" y="181.0662" fill="#00fc00" stroke="#000"/></g><g clip-path="url(#p4ef1701021)"><use x="196.0406" xlink:href="#C0_0_b55b7e4afb" y="213.614" fill="#0002fd" stroke="#000"/></g><g clip-path="url(#p4ef1701021)"><use x="113.5126" xlink:href="#C0_0_b55b7e4afb" y="157.7376" fill="red" stroke="#000"/></g><g clip-path="url(#p4ef1701021)"><use x="331.8667" xlink:href="#C0_0_b55b7e4afb" y="98.3786" fill="#fefe01" stroke="#000"/></g><g clip-path="url(#p4ef1701021)"><use x="214.7463" xlink:href="#C0_0_b55b7e4afb" y="162.8714" fill="#00fc00" stroke="#000"/></g><g clip-path="url(#p4ef1701021)"><use x="266.7629" xlink:href="#C0_0_b55b7e4afb" y="93.487" stroke="#000"/></g><g clip-path="url(#p4ef1701021)"><use x="150.9772" xlink:href="#C0_0_b55b7e4afb" y="151.1213" fill="red" stroke="#000"/></g><g clip-path="url(#p4ef1701021)"><use x="179.516" xlink:href="#C0_0_b55b7e4afb" y="246.1331" fill="#0002fd" stroke="#000"/></g><g clip-path="url(#p4ef1701021)"><use x="293.1478" xlink:href="#C0_0_b55b7e4afb" y="89.4879" stroke="#000"/></g><g clip-path="url(#p4ef1701021)"><use x="225.3862" xlink:href="#C0_0_b55b7e4afb" y="171.4919" fill="#00fc00" stroke="#000"/></g><g clip-path="url(#p4ef1701021)"><use x="212.8211" xlink:href="#C0_0_b55b7e4afb" y="161.4396" fill="#00fc00" stroke="#000"/></g><g clip-path="url(#p4ef1701021)"><use x="164.9133" xlink:href="#C0_0_b55b7e4afb" y="191.5807" fill="#0002fd" stroke="#000"/></g><g clip-path="url(#p4ef1701021)"><use x="255.2342" xlink:href="#C0_0_b55b7e4afb" y="153.0238" fill="#00fc00" stroke="#000"/></g><g clip-path="url(#p4ef1701021)"><use x="225.7099" xlink:href="#C0_0_b55b7e4afb" y="158.6215" fill="#00fc00" stroke="#000"/></g><g clip-path="url(#p4ef1701021)"><use x="318.3195" xlink:href="#C0_0_b55b7e4afb" y="112.994" fill="#fefe01" stroke="#000"/></g><g clip-path="url(#p4ef1701021)"><use x="262.9512" xlink:href="#C0_0_b55b7e4afb" y="79.5485" stroke="#000"/></g><g clip-path="url(#p4ef1701021)"><use x="190.5727" xlink:href="#C0_0_b55b7e4afb" y="171.1152" fill="#00fc00" stroke="#000"/></g><g clip-path="url(#p4ef1701021)"><use x="193.4325" xlink:href="#C0_0_b55b7e4afb" y="240.3041" fill="#0002fd" stroke="#000"/></g><g clip-path="url(#p4ef1701021)"><use x="285.1665" xlink:href="#C0_0_b55b7e4afb" y="94.1141" stroke="#000"/></g><g clip-path="url(#p4ef1701021)"><use x="228.1062" xlink:href="#C0_0_b55b7e4afb" y="145.103" fill="#00fc00" stroke="#000"/></g><g clip-path="url(#p4ef1701021)"><use x="185.2549" xlink:href="#C0_0_b55b7e4afb" y="193.4058" fill="#0002fd" stroke="#000"/></g><g clip-path="url(#p4ef1701021)"><use x="304.5898" xlink:href="#C0_0_b55b7e4afb" y="109.023" fill="#fefe01" stroke="#000"/></g><g clip-path="url(#p4ef1701021)"><use x="286.9376" xlink:href="#C0_0_b55b7e4afb" y="95.2264" stroke="#000"/></g><g clip-path="url(#p4ef1701021)"><use x="126.7029" xlink:href="#C0_0_b55b7e4afb" y="152.1764" fill="red" stroke="#000"/></g><g clip-path="url(#p4ef1701021)"><use x="284.4726" xlink:href="#C0_0_b55b7e4afb" y="94.3018" stroke="#000"/></g><g clip-path="url(#p4ef1701021)"><use x="266.6024" xlink:href="#C0_0_b55b7e4afb" y="84.8737" stroke="#000"/></g><g clip-path="url(#p4ef1701021)"><use x="128.0709" xlink:href="#C0_0_b55b7e4afb" y="166.7189" fill="red" stroke="#000"/></g><g clip-path="url(#p4ef1701021)"><use x="361.3789" xlink:href="#C0_0_b55b7e4afb" y="153.5181" fill="#fefe01" stroke="#000"/></g><g clip-path="url(#p4ef1701021)"><use x="307.3696" xlink:href="#C0_0_b55b7e4afb" y="123.2376" fill="#fefe01" stroke="#000"/></g><g clip-path="url(#p4ef1701021)"><use x="343.6058" xlink:href="#C0_0_b55b7e4afb" y="116.8219" fill="#fefe01" stroke="#000"/></g><g clip-path="url(#p4ef1701021)"><use x="80.1329" xlink:href="#C0_0_b55b7e4afb" y="175.7144" fill="red" stroke="#000"/></g><g clip-path="url(#p4ef1701021)"><use x="215.6532" xlink:href="#C0_0_b55b7e4afb" y="181.4949" fill="#00fc00" stroke="#000"/></g><g clip-path="url(#p4ef1701021)"><use x="195.3254" xlink:href="#C0_0_b55b7e4afb" y="203.6988" fill="#0002fd" stroke="#000"/></g><g clip-path="url(#p4ef1701021)"><use x="156.9214" xlink:href="#C0_0_b55b7e4afb" y="207.8477" fill="#0002fd" stroke="#000"/></g><g clip-path="url(#p4ef1701021)"><use x="323.5657" xlink:href="#C0_0_b55b7e4afb" y="67.6021" stroke="#000"/></g><g clip-path="url(#p4ef1701021)"><use x="161.4401" xlink:href="#C0_0_b55b7e4afb" y="139.8141" fill="red" stroke="#000"/></g><g clip-path="url(#p4ef1701021)"><use x="301.0455" xlink:href="#C0_0_b55b7e4afb" y="92.2566" stroke="#000"/></g><g clip-path="url(#p4ef1701021)"><use x="154.1638" xlink:href="#C0_0_b55b7e4afb" y="142.9339" fill="red" stroke="#000"/></g><g clip-path="url(#p4ef1701021)"><use x="293.0898" xlink:href="#C0_0_b55b7e4afb" y="118.4995" fill="#fefe01" stroke="#000"/></g><g clip-path="url(#p4ef1701021)"><use x="138.4471" xlink:href="#C0_0_b55b7e4afb" y="170.4562" fill="red" stroke="#000"/></g><g clip-path="url(#p4ef1701021)"><use x="306.6181" xlink:href="#C0_0_b55b7e4afb" y="148.3529" fill="#fefe01" stroke="#000"/></g><g clip-path="url(#p4ef1701021)"><use x="251.981" xlink:href="#C0_0_b55b7e4afb" y="55.267" stroke="#000"/></g><g clip-path="url(#p4ef1701021)"><use x="158.7327" xlink:href="#C0_0_b55b7e4afb" y="201.6926" fill="#0002fd" stroke="#000"/></g><g clip-path="url(#p4ef1701021)"><use x="207.3765" xlink:href="#C0_0_b55b7e4afb" y="233.4169" fill="#0002fd" stroke="#000"/></g><g clip-path="url(#p4ef1701021)"><use x="131.8066" xlink:href="#C0_0_b55b7e4afb" y="209.0463" fill="#0002fd" stroke="#000"/></g><g clip-path="url(#p4ef1701021)"><use x="139.3199" xlink:href="#C0_0_b55b7e4afb" y="174.7301" fill="red" stroke="#000"/></g><g clip-path="url(#p4ef1701021)"><use x="94.0093" xlink:href="#C0_0_b55b7e4afb" y="144.9413" fill="red" stroke="#000"/></g><g clip-path="url(#p4ef1701021)"><use x="264.6182" xlink:href="#C0_0_b55b7e4afb" y="44.7469" stroke="#000"/></g><g clip-path="url(#p4ef1701021)"><use x="129.2077" xlink:href="#C0_0_b55b7e4afb" y="154.369" fill="red" stroke="#000"/></g><g clip-path="url(#p4ef1701021)"><use x="199.8234" xlink:href="#C0_0_b55b7e4afb" y="147.6389" fill="#00fc00" stroke="#000"/></g><g clip-path="url(#p4ef1701021)"><use x="303.1755" xlink:href="#C0_0_b55b7e4afb" y="112.4715" fill="#fefe01" stroke="#000"/></g><g clip-path="url(#p4ef1701021)"><use x="353.7132" xlink:href="#C0_0_b55b7e4afb" y="91.8736" fill="#fefe01" stroke="#000"/></g><g clip-path="url(#p4ef1701021)"><use x="141.7533" xlink:href="#C0_0_b55b7e4afb" y="211.8462" fill="#0002fd" stroke="#000"/></g><g clip-path="url(#p4ef1701021)"><use x="69.35" xlink:href="#C0_0_b55b7e4afb" y="178.6938" fill="red" stroke="#000"/></g><g clip-path="url(#p4ef1701021)"><use x="153.063" xlink:href="#C0_0_b55b7e4afb" y="148.9419" fill="red" stroke="#000"/></g><g clip-path="url(#p4ef1701021)"><use x="110.0335" xlink:href="#C0_0_b55b7e4afb" y="153.1021" fill="red" stroke="#000"/></g><g clip-path="url(#p4ef1701021)"><use x="192.1628" xlink:href="#C0_0_b55b7e4afb" y="161.8025" fill="#00fc00" stroke="#000"/></g><g clip-path="url(#p4ef1701021)"><use x="237.5576" xlink:href="#C0_0_b55b7e4afb" y="111.073" stroke="#000"/></g><g clip-path="url(#p4ef1701021)"><use x="267.3323" xlink:href="#C0_0_b55b7e4afb" y="77.4966" stroke="#000"/></g><g clip-path="url(#p4ef1701021)"><use x="292.8405" xlink:href="#C0_0_b55b7e4afb" y="66.0594" stroke="#000"/></g><g clip-path="url(#p4ef1701021)"><use x="131.7131" xlink:href="#C0_0_b55b7e4afb" y="175.7703" fill="red" stroke="#000"/></g><g clip-path="url(#p4ef1701021)"><use x="281.7535" xlink:href="#C0_0_b55b7e4afb" y="67.067" stroke="#000"/></g><g clip-path="url(#p4ef1701021)"><use x="113.0323" xlink:href="#C0_0_b55b7e4afb" y="172.8606" fill="red" stroke="#000"/></g><g clip-path="url(#p4ef1701021)"><use x="324.5406" xlink:href="#C0_0_b55b7e4afb" y="109.9985" fill="#fefe01" stroke="#000"/></g><g clip-path="url(#p4ef1701021)"><use x="350.6739" xlink:href="#C0_0_b55b7e4afb" y="63.0011" stroke="#000"/></g><g clip-path="url(#p4ef1701021)"><use x="235.4341" xlink:href="#C0_0_b55b7e4afb" y="150.9122" fill="#00fc00" stroke="#000"/></g><g clip-path="url(#p4ef1701021)"><use x="125.2772" xlink:href="#C0_0_b55b7e4afb" y="157.1503" fill="red" stroke="#000"/></g><g clip-path="url(#p4ef1701021)"><use x="131.1917" xlink:href="#C0_0_b55b7e4afb" y="152.0041" fill="red" stroke="#000"/></g><g clip-path="url(#p4ef1701021)"><use x="223.7642" xlink:href="#C0_0_b55b7e4afb" y="211.5432" fill="#0002fd" stroke="#000"/></g><g clip-path="url(#p4ef1701021)"><use x="226.4399" xlink:href="#C0_0_b55b7e4afb" y="177.3179" fill="#00fc00" stroke="#000"/></g></g><g id="matplotlib.axis_1"><g id="xtick_1"><g id="line2d_1"><defs><path d="M0 0v3.5" id="m4f19ff2a6c" stroke="#000" stroke-width=".8"/></defs><use x="80.074" xlink:href="#m4f19ff2a6c" y="256.32" stroke="#000" stroke-width=".8"/></g><g id="text_1"><defs><path d="M10.5938 35.5h62.5937v-8.2969H10.5937z" id="DejaVuSans-2212"/><path d="M12.4063 8.2969h16.1093v55.625l-17.5312-3.5157v8.9844l17.4375 3.5156h9.8593V8.297h16.1094V0H12.4063z" id="DejaVuSans-31"/><path d="M19.1875 8.2969h34.4219V0H7.328v8.2969q5.6094 5.8125 15.2969 15.5937 9.7031 9.7969 12.1875 12.6407 4.7344 5.3124 6.6094 9 1.8906 3.6874 1.8906 7.25 0 5.8124-4.0781 9.4687-4.0782 3.6719-10.625 3.6719-4.6407 0-9.7969-1.6094-5.1406-1.6094-11-4.8906v9.9687Q13.7656 71.7812 18.9375 73q5.1875 1.2188 9.4844 1.2188 11.3281 0 18.0625-5.672 6.7343-5.6562 6.7343-15.125 0-4.5-1.6874-8.5312-1.672-4.0156-6.125-9.4843-1.2188-1.422-7.7657-8.1876-6.5312-6.7656-18.4531-18.9218z" id="DejaVuSans-32"/></defs><g transform="matrix(.1 0 0 -.1 69.5217 270.9184)"><use xlink:href="#DejaVuSans-2212"/><use x="83.7891" xlink:href="#DejaVuSans-31"/><use x="147.4121" xlink:href="#DejaVuSans-32"/></g></g></g><g id="xtick_2"><use x="120.9344" xlink:href="#m4f19ff2a6c" y="256.32" stroke="#000" stroke-width=".8" id="line2d_2"/><g id="text_2"><defs><path d="M31.7813 66.4063q-7.6094 0-11.4532-7.5Q16.5 51.4218 16.5 36.375q0-14.9844 3.8281-22.4844 3.8438-7.5 11.4532-7.5 7.6718 0 11.5 7.5 3.8437 7.5 3.8437 22.4844 0 15.0469-3.8438 22.5313-3.828 7.5-11.5 7.5zm0 7.8124q12.2656 0 18.7343-9.703 6.4688-9.6876 6.4688-28.1407 0-18.4063-6.4688-28.1094-6.4687-9.6875-18.7343-9.6875-12.25 0-18.7188 9.6875-6.4688 9.7032-6.4688 28.1094 0 18.4531 6.4688 28.1406 6.4688 9.7031 18.7188 9.7031z" id="DejaVuSans-30"/></defs><g transform="matrix(.1 0 0 -.1 110.382 270.9184)"><use xlink:href="#DejaVuSans-2212"/><use x="83.7891" xlink:href="#DejaVuSans-31"/><use x="147.4121" xlink:href="#DejaVuSans-30"/></g></g></g><g id="xtick_3"><use x="161.7948" xlink:href="#m4f19ff2a6c" y="256.32" stroke="#000" stroke-width=".8" id="line2d_3"/><g id="text_3"><defs><path d="M31.7813 34.625q-7.0313 0-11.0626-3.7656-4.0156-3.7657-4.0156-10.3438 0-6.5937 4.0157-10.3593Q24.75 6.3906 31.7812 6.3906q7.0313 0 11.0782 3.7813 4.0625 3.7968 4.0625 10.3437 0 6.5782-4.0313 10.3438-4.0156 3.7656-11.1093 3.7656zm-9.8594 4.1875q-6.3438 1.5625-9.8907 5.9063Q8.5 49.078 8.5 55.328q0 8.7344 6.2188 13.8125 6.2343 5.0781 17.0624 5.0781 10.8907 0 17.0938-5.078 6.2031-5.0782 6.2031-13.8126 0-6.25-3.5468-10.6093Q48 40.375 41.703 38.8124q7.125-1.6563 11.0938-6.5 3.9843-4.8281 3.9843-11.7969 0-10.6093-6.4687-16.2812Q43.8437-1.422 31.7812-1.422q-12.0468 0-18.5312 5.6563-6.4688 5.6719-6.4688 16.2812 0 6.9688 4 11.7969 4.0157 4.8438 11.1407 6.5zm-3.6094 15.5781q0-5.6562 3.5313-8.8281 3.5468-3.1719 9.9374-3.1719 6.3594 0 9.9376 3.1719 3.5937 3.1719 3.5937 8.8281 0 5.6719-3.5938 8.8438-3.578 3.1718-9.9374 3.1718-6.3907 0-9.9376-3.1718-3.5312-3.1719-3.5312-8.8438z" id="DejaVuSans-38"/></defs><g transform="matrix(.1 0 0 -.1 154.4237 270.9184)"><use xlink:href="#DejaVuSans-2212"/><use x="83.7891" xlink:href="#DejaVuSans-38"/></g></g></g><g id="xtick_4"><use x="202.6552" xlink:href="#m4f19ff2a6c" y="256.32" stroke="#000" stroke-width=".8" id="line2d_4"/><g id="text_4"><defs><path d="M33.0156 40.375q-6.6406 0-10.5312-4.5469-3.875-4.5312-3.875-12.4375 0-7.8593 3.875-12.4375 3.8906-4.5625 10.5312-4.5625 6.6407 0 10.5157 4.5625 3.875 4.5782 3.875 12.4375 0 7.9063-3.875 12.4375-3.875 4.5469-10.5157 4.5469zm19.5782 30.9219v-8.9844q-3.7188 1.75-7.5 2.6719-3.7813.9375-7.5.9375-9.7657 0-14.922-6.5938-5.1406-6.5937-5.875-19.9218 2.875 4.25 7.2188 6.5156 4.3594 2.2656 9.5782 2.2656 10.9843 0 17.3593-6.6719 6.375-6.6562 6.375-18.125 0-11.2343-6.6406-18.0312Q44.0469-1.422 33.0156-1.422q-12.6562 0-19.3437 9.6875-6.6875 9.7032-6.6875 28.1094 0 17.2813 8.2031 27.5625 8.2031 10.2813 22.0156 10.2813 3.7188 0 7.5-.7344 3.7813-.7344 7.8907-2.1875z" id="DejaVuSans-36"/></defs><g transform="matrix(.1 0 0 -.1 195.2841 270.9184)"><use xlink:href="#DejaVuSans-2212"/><use x="83.7891" xlink:href="#DejaVuSans-36"/></g></g></g><g id="xtick_5"><use x="243.5156" xlink:href="#m4f19ff2a6c" y="256.32" stroke="#000" stroke-width=".8" id="line2d_5"/><g id="text_5"><defs><path d="M37.7969 64.3125L12.8906 25.3906H37.797zm-2.5938 8.5938h12.4063V25.3905h10.4062v-8.2031H47.6094V0h-9.8125v17.1875H4.8906v9.5156z" id="DejaVuSans-34"/></defs><g transform="matrix(.1 0 0 -.1 236.1445 270.9184)"><use xlink:href="#DejaVuSans-2212"/><use x="83.7891" xlink:href="#DejaVuSans-34"/></g></g></g><g id="xtick_6"><use x="284.376" xlink:href="#m4f19ff2a6c" y="256.32" stroke="#000" stroke-width=".8" id="line2d_6"/><g transform="matrix(.1 0 0 -.1 277.005 270.9184)" id="text_6"><use xlink:href="#DejaVuSans-2212"/><use x="83.7891" xlink:href="#DejaVuSans-32"/></g></g><g id="xtick_7"><use x="325.2364" xlink:href="#m4f19ff2a6c" y="256.32" stroke="#000" stroke-width=".8" id="line2d_7"/><use xlink:href="#DejaVuSans-30" transform="matrix(.1 0 0 -.1 322.0551 270.9184)" id="text_7"/></g><g id="xtick_8"><use x="366.0968" xlink:href="#m4f19ff2a6c" y="256.32" stroke="#000" stroke-width=".8" id="line2d_8"/><use xlink:href="#DejaVuSans-32" transform="matrix(.1 0 0 -.1 362.9155 270.9184)" id="text_8"/></g><g id="text_9"><defs><path d="M6.2969 72.9063h10.5937l18.125-27.1094 18.2032 27.1093h10.5937L40.375 37.8907 65.375 0H54.7812l-20.5 31L13.625 0H2.9844L29 38.9219z" id="DejaVuSans-58"/><path d="M8.5938 75.9844h20.703V69H17.5782V-6.2031H29.297v-6.9844H8.5937z" id="DejaVuSans-5b"/><path d="M11.7188 12.4063h10.2968V0H11.7188zm0 39.2968h10.2968V39.3125H11.7188z" id="DejaVuSans-3a"/><path d="M11.7188 12.4063h10.2968V4l-8-15.625H7.7188l4 15.625z" id="DejaVuSans-2c"/><path d="M30.4219 75.9844v-89.1719H9.7187v6.9844h11.672V69H9.7186v6.9844z" id="DejaVuSans-5d"/></defs><g transform="matrix(.1 0 0 -.1 206.0297 284.5966)"><use xlink:href="#DejaVuSans-58"/><use x="68.5059" xlink:href="#DejaVuSans-5b"/><use x="107.5195" xlink:href="#DejaVuSans-3a"/><use x="141.2109" xlink:href="#DejaVuSans-2c"/><use x="172.998" xlink:href="#DejaVuSans-20"/><use x="204.7852" xlink:href="#DejaVuSans-30"/><use x="268.4082" xlink:href="#DejaVuSans-5d"/></g></g></g><g id="matplotlib.axis_2"><g id="ytick_1"><g id="line2d_9"><defs><path d="M0 0h-3.5" id="m0ccda654b6" stroke="#000" stroke-width=".8"/></defs><use x="54" xlink:href="#m0ccda654b6" y="235.3682" stroke="#000" stroke-width=".8"/></g><g id="text_10"><defs><path d="M10.6875 12.4063H21V0H10.6875z" id="DejaVuSans-2e"/></defs><g transform="matrix(.1 0 0 -.1 16.3547 239.1675)"><use xlink:href="#DejaVuSans-2212"/><use x="83.7891" xlink:href="#DejaVuSans-31"/><use x="147.4121" xlink:href="#DejaVuSans-30"/><use x="211.0352" xlink:href="#DejaVuSans-2e"/><use x="242.8223" xlink:href="#DejaVuSans-30"/></g></g></g><g id="ytick_2"><use x="54" xlink:href="#m0ccda654b6" y="207.9301" stroke="#000" stroke-width=".8" id="line2d_10"/><g id="text_11"><defs><path d="M8.2031 72.9063h46.875V68.703L28.6094 0H18.3125l24.9063 64.5938H8.203z" id="DejaVuSans-37"/><path d="M10.7969 72.9063h38.7187v-8.3126H19.8281V46.7344q2.1407.7343 4.2813 1.0937 2.1562.3594 4.3125.3594 12.2031 0 19.3281-6.6875 7.1406-6.6875 7.1406-18.1094 0-11.7656-7.3281-18.2968Q40.2344-1.422 26.9062-1.422q-4.5937 0-9.3593.7813-4.75.7812-9.8282 2.3437v9.9219q4.3907-2.3906 9.0782-3.5625 4.6875-1.1719 9.9062-1.1719 8.4532 0 13.375 4.4375 4.9375 4.4375 4.9375 12.0625 0 7.6094-4.9375 12.0469-4.9218 4.4531-13.375 4.4531-3.9531 0-7.8906-.875-3.9219-.875-8.0156-2.7343z" id="DejaVuSans-35"/></defs><g transform="matrix(.1 0 0 -.1 22.7172 211.7293)"><use xlink:href="#DejaVuSans-2212"/><use x="83.7891" xlink:href="#DejaVuSans-37"/><use x="147.4121" xlink:href="#DejaVuSans-2e"/><use x="179.1992" xlink:href="#DejaVuSans-35"/></g></g></g><g id="ytick_3"><use x="54" xlink:href="#m0ccda654b6" y="180.492" stroke="#000" stroke-width=".8" id="line2d_11"/><g transform="matrix(.1 0 0 -.1 22.7172 184.2912)" id="text_12"><use xlink:href="#DejaVuSans-2212"/><use x="83.7891" xlink:href="#DejaVuSans-35"/><use x="147.4121" xlink:href="#DejaVuSans-2e"/><use x="179.1992" xlink:href="#DejaVuSans-30"/></g></g><g id="ytick_4"><use x="54" xlink:href="#m0ccda654b6" y="153.0538" stroke="#000" stroke-width=".8" id="line2d_12"/><g transform="matrix(.1 0 0 -.1 22.7172 156.853)" id="text_13"><use xlink:href="#DejaVuSans-2212"/><use x="83.7891" xlink:href="#DejaVuSans-32"/><use x="147.4121" xlink:href="#DejaVuSans-2e"/><use x="179.1992" xlink:href="#DejaVuSans-35"/></g></g><g id="ytick_5"><use x="54" xlink:href="#m0ccda654b6" y="125.6157" stroke="#000" stroke-width=".8" id="line2d_13"/><g transform="matrix(.1 0 0 -.1 31.0969 129.415)" id="text_14"><use xlink:href="#DejaVuSans-30"/><use x="63.623" xlink:href="#DejaVuSans-2e"/><use x="95.4102" xlink:href="#DejaVuSans-30"/></g></g><g id="ytick_6"><use x="54" xlink:href="#m0ccda654b6" y="98.1776" stroke="#000" stroke-width=".8" id="line2d_14"/><g transform="matrix(.1 0 0 -.1 31.0969 101.9768)" id="text_15"><use xlink:href="#DejaVuSans-32"/><use x="63.623" xlink:href="#DejaVuSans-2e"/><use x="95.4102" xlink:href="#DejaVuSans-35"/></g></g><g id="ytick_7"><use x="54" xlink:href="#m0ccda654b6" y="70.7394" stroke="#000" stroke-width=".8" id="line2d_15"/><g transform="matrix(.1 0 0 -.1 31.0969 74.5387)" id="text_16"><use xlink:href="#DejaVuSans-35"/><use x="63.623" xlink:href="#DejaVuSans-2e"/><use x="95.4102" xlink:href="#DejaVuSans-30"/></g></g><g id="ytick_8"><use x="54" xlink:href="#m0ccda654b6" y="43.3013" stroke="#000" stroke-width=".8" id="line2d_16"/><g transform="matrix(.1 0 0 -.1 31.0969 47.1005)" id="text_17"><use xlink:href="#DejaVuSans-37"/><use x="63.623" xlink:href="#DejaVuSans-2e"/><use x="95.4102" xlink:href="#DejaVuSans-35"/></g></g><g transform="matrix(0 -.1 -.1 0 10.275 160.8103)" id="text_18"><use xlink:href="#DejaVuSans-58"/><use x="68.5059" xlink:href="#DejaVuSans-5b"/><use x="107.5195" xlink:href="#DejaVuSans-3a"/><use x="141.2109" xlink:href="#DejaVuSans-2c"/><use x="172.998" xlink:href="#DejaVuSans-20"/><use x="204.7852" xlink:href="#DejaVuSans-31"/><use x="268.4082" xlink:href="#DejaVuSans-5d"/></g></g><path d="M54 256.32V34.56" fill="none" stroke="#000" stroke-linecap="square" stroke-width=".8" id="patch_3"/><path d="M388.8 256.32V34.56" fill="none" stroke="#000" stroke-linecap="square" stroke-width=".8" id="patch_4"/><path d="M54 256.32h334.8" fill="none" stroke="#000" stroke-linecap="square" stroke-width=".8" id="patch_5"/><path d="M54 34.56h334.8" fill="none" stroke="#000" stroke-linecap="square" stroke-width=".8" id="patch_6"/></g></g><defs><clipPath id="p4ef1701021"><path d="M54 34.56h334.8v221.76H54z"/></clipPath></defs></svg>