<?xml version="1.0" encoding="UTF-8" standalone="no"?>
<svg
   xmlns:dc="http://purl.org/dc/elements/1.1/"
   xmlns:cc="http://creativecommons.org/ns#"
   xmlns:rdf="http://www.w3.org/1999/02/22-rdf-syntax-ns#"
   xmlns:svg="http://www.w3.org/2000/svg"
   xmlns="http://www.w3.org/2000/svg"
   viewBox="0 0 472 372"
   height="372"
   width="472"
   xml:space="preserve"
   id="svg2"
   version="1.1"><metadata
     id="metadata8"><rdf:RDF><cc:Work
         rdf:about=""><dc:format>image/svg+xml</dc:format><dc:type
           rdf:resource="http://purl.org/dc/dcmitype/StillImage" /></cc:Work></rdf:RDF></metadata><defs
     id="defs6" /><g
     transform="matrix(1.3333333,0,0,-1.3333333,0,372)"
     id="g10"><g
       transform="scale(0.1)"
       id="g12"><path
         id="path14"
         style="fill:none;stroke:#262626;stroke-width:3.51783991;stroke-linecap:butt;stroke-linejoin:miter;stroke-miterlimit:4;stroke-dasharray:none;stroke-opacity:1"
         d="m 351.371,267.23 v 31.399" /><path
         id="path16"
         style="fill:none;stroke:#262626;stroke-width:3.51783991;stroke-linecap:butt;stroke-linejoin:miter;stroke-miterlimit:4;stroke-dasharray:none;stroke-opacity:1"
         d="m 351.371,2744.3 v -31.41" /><path
         id="path18"
         style="fill:none;stroke:#262626;stroke-width:7.03567982;stroke-linecap:butt;stroke-linejoin:miter;stroke-miterlimit:4;stroke-dasharray:none;stroke-opacity:1"
         d="m 979.488,267.23 v 31.399" /><path
         id="path20"
         style="fill:none;stroke:#262626;stroke-width:7.03567982;stroke-linecap:butt;stroke-linejoin:miter;stroke-miterlimit:4;stroke-dasharray:none;stroke-opacity:1"
         d="m 979.488,2744.3 v -31.41" /><path
         id="path22"
         style="fill:none;stroke:#262626;stroke-width:7.03567982;stroke-linecap:butt;stroke-linejoin:miter;stroke-miterlimit:4;stroke-dasharray:none;stroke-opacity:1"
         d="m 1607.66,267.23 v 31.399" /><path
         id="path24"
         style="fill:none;stroke:#262626;stroke-width:7.03567982;stroke-linecap:butt;stroke-linejoin:miter;stroke-miterlimit:4;stroke-dasharray:none;stroke-opacity:1"
         d="m 1607.66,2744.3 v -31.41" /><path
         id="path26"
         style="fill:none;stroke:#262626;stroke-width:7.03567982;stroke-linecap:butt;stroke-linejoin:miter;stroke-miterlimit:4;stroke-dasharray:none;stroke-opacity:1"
         d="m 2235.78,267.23 v 31.399" /><path
         id="path28"
         style="fill:none;stroke:#262626;stroke-width:7.03567982;stroke-linecap:butt;stroke-linejoin:miter;stroke-miterlimit:4;stroke-dasharray:none;stroke-opacity:1"
         d="m 2235.78,2744.3 v -31.41" /><path
         id="path30"
         style="fill:none;stroke:#262626;stroke-width:7.03567982;stroke-linecap:butt;stroke-linejoin:miter;stroke-miterlimit:4;stroke-dasharray:none;stroke-opacity:1"
         d="m 2863.91,267.23 v 31.399" /><path
         id="path32"
         style="fill:none;stroke:#262626;stroke-width:7.03567982;stroke-linecap:butt;stroke-linejoin:miter;stroke-miterlimit:4;stroke-dasharray:none;stroke-opacity:1"
         d="m 2863.91,2744.3 v -31.41" /><path
         id="path34"
         style="fill:none;stroke:#262626;stroke-width:3.51783991;stroke-linecap:butt;stroke-linejoin:miter;stroke-miterlimit:4;stroke-dasharray:none;stroke-opacity:1"
         d="m 3492.07,267.23 v 31.399" /><path
         id="path36"
         style="fill:none;stroke:#262626;stroke-width:3.51783991;stroke-linecap:butt;stroke-linejoin:miter;stroke-miterlimit:4;stroke-dasharray:none;stroke-opacity:1"
         d="m 3492.07,2744.3 v -31.41" /><g
         transform="scale(10)"
         id="g38"><text
           id="text48"
           style="font-variant:normal;font-weight:normal;font-size:11.25710011px;font-family:Arial;-inkscape-font-specification:ArialMT;writing-mode:lr-tb;fill:#262626;fill-opacity:1;fill-rule:nonzero;stroke:none"
           transform="matrix(1,0,0,-1,32.0055,13.2086)"><tspan
             id="tspan40"
             y="0"
             x="0 62.814842">12</tspan><tspan
             id="tspan42"
             y="-0.142969"
             x="125.628">3</tspan><tspan
             id="tspan44"
             y="0"
             x="188.4413">4</tspan><tspan
             id="tspan46"
             y="-0.1375"
             x="251.2534 314.06824">56</tspan></text>
</g><path
         id="path50"
         style="fill:none;stroke:#262626;stroke-width:3.51783991;stroke-linecap:butt;stroke-linejoin:miter;stroke-miterlimit:4;stroke-dasharray:none;stroke-opacity:1"
         d="m 351.371,267.23 h 31.438" /><path
         id="path52"
         style="fill:none;stroke:#262626;stroke-width:3.51783991;stroke-linecap:butt;stroke-linejoin:miter;stroke-miterlimit:4;stroke-dasharray:none;stroke-opacity:1"
         d="m 3492.07,267.23 h -31.44" /><path
         id="path54"
         style="fill:none;stroke:#262626;stroke-width:7.03567982;stroke-linecap:butt;stroke-linejoin:miter;stroke-miterlimit:4;stroke-dasharray:none;stroke-opacity:1"
         d="m 351.371,762.621 h 31.438" /><path
         id="path56"
         style="fill:none;stroke:#262626;stroke-width:7.03567982;stroke-linecap:butt;stroke-linejoin:miter;stroke-miterlimit:4;stroke-dasharray:none;stroke-opacity:1"
         d="m 3492.07,762.621 h -31.44" /><path
         id="path58"
         style="fill:none;stroke:#262626;stroke-width:7.03567982;stroke-linecap:butt;stroke-linejoin:miter;stroke-miterlimit:4;stroke-dasharray:none;stroke-opacity:1"
         d="m 351.371,1258.05 h 31.438" /><path
         id="path60"
         style="fill:none;stroke:#262626;stroke-width:7.03567982;stroke-linecap:butt;stroke-linejoin:miter;stroke-miterlimit:4;stroke-dasharray:none;stroke-opacity:1"
         d="m 3492.07,1258.05 h -31.44" /><path
         id="path62"
         style="fill:none;stroke:#262626;stroke-width:7.03567982;stroke-linecap:butt;stroke-linejoin:miter;stroke-miterlimit:4;stroke-dasharray:none;stroke-opacity:1"
         d="m 351.371,1753.44 h 31.438" /><path
         id="path64"
         style="fill:none;stroke:#262626;stroke-width:7.03567982;stroke-linecap:butt;stroke-linejoin:miter;stroke-miterlimit:4;stroke-dasharray:none;stroke-opacity:1"
         d="m 3492.07,1753.44 h -31.44" /><path
         id="path66"
         style="fill:none;stroke:#262626;stroke-width:7.03567982;stroke-linecap:butt;stroke-linejoin:miter;stroke-miterlimit:4;stroke-dasharray:none;stroke-opacity:1"
         d="m 351.371,2248.91 h 31.438" /><path
         id="path68"
         style="fill:none;stroke:#262626;stroke-width:7.03567982;stroke-linecap:butt;stroke-linejoin:miter;stroke-miterlimit:4;stroke-dasharray:none;stroke-opacity:1"
         d="m 3492.07,2248.91 h -31.44" /><path
         id="path70"
         style="fill:none;stroke:#262626;stroke-width:3.51783991;stroke-linecap:butt;stroke-linejoin:miter;stroke-miterlimit:4;stroke-dasharray:none;stroke-opacity:1"
         d="m 351.371,2744.3 h 31.438" /><path
         id="path72"
         style="fill:none;stroke:#262626;stroke-width:3.51783991;stroke-linecap:butt;stroke-linejoin:miter;stroke-miterlimit:4;stroke-dasharray:none;stroke-opacity:1"
         d="m 3492.07,2744.3 h -31.44" /><g
         transform="scale(10)"
         id="g74"><text
           id="text88"
           style="font-variant:normal;font-weight:normal;font-size:11.25710011px;font-family:Arial;-inkscape-font-specification:ArialMT;writing-mode:lr-tb;fill:#262626;fill-opacity:1;fill-rule:nonzero;stroke:none"
           transform="matrix(1,0,0,-1,23.9445,23.2012)"><tspan
             id="tspan76"
             y="0"
             x="0">2</tspan><tspan
             id="tspan78"
             y="-49.541"
             x="0">4</tspan><tspan
             id="tspan80"
             y="-99.082001"
             x="0">6</tspan><tspan
             id="tspan82"
             y="-148.623"
             x="0">8</tspan><tspan
             id="tspan84"
             y="-198.1671"
             x="-6.2660198 -0.0070723998">10</tspan><tspan
             id="tspan86"
             y="-247.7077"
             x="-6.2660198 -0.0070723998">12</tspan></text>
</g><path
         id="path90"
         style="fill:none;stroke:#262626;stroke-width:7.03567982;stroke-linecap:butt;stroke-linejoin:miter;stroke-miterlimit:4;stroke-dasharray:none;stroke-opacity:1"
         d="M 351.371,267.23 H 3492.07" /><path
         id="path92"
         style="fill:none;stroke:#262626;stroke-width:7.03567982;stroke-linecap:butt;stroke-linejoin:miter;stroke-miterlimit:4;stroke-dasharray:none;stroke-opacity:1"
         d="M 351.371,2744.3 H 3492.07" /><path
         id="path94"
         style="fill:none;stroke:#262626;stroke-width:7.03567982;stroke-linecap:butt;stroke-linejoin:miter;stroke-miterlimit:4;stroke-dasharray:none;stroke-opacity:1"
         d="M 351.371,267.23 V 2744.3" /><path
         id="path96"
         style="fill:none;stroke:#262626;stroke-width:7.03567982;stroke-linecap:butt;stroke-linejoin:miter;stroke-miterlimit:4;stroke-dasharray:none;stroke-opacity:1"
         d="M 3492.07,267.23 V 2744.3" /><path
         id="path98"
         style="fill:none;stroke:#0187ff;stroke-width:10.55350018;stroke-linecap:butt;stroke-linejoin:miter;stroke-miterlimit:4;stroke-dasharray:none;stroke-opacity:1"
         d="M 351.371,2496.6 979.488,514.922 1607.66,440.621 2235.78,415.859 2863.91,329.141 3492.07,309.34" /><path
         id="path100"
         style="fill:none;stroke:#0187ff;stroke-width:10.55350018;stroke-linecap:butt;stroke-linejoin:miter;stroke-miterlimit:4;stroke-dasharray:none;stroke-opacity:1"
         d="m 393.59,2496.6 -2.539,-14.45 -7.301,-12.7 -11.25,-9.45 -13.789,-5 h -14.652 l -13.789,5 -11.25,9.45 -7.301,12.7 -2.539,14.45 2.539,14.42 7.301,12.69 11.25,9.41 13.789,5.04 h 14.652 l 13.789,-5.04 11.25,-9.41 7.301,-12.69 2.539,-14.42" /><path
         id="path102"
         style="fill:none;stroke:#ec0000;stroke-width:16.88559914;stroke-linecap:butt;stroke-linejoin:miter;stroke-miterlimit:4;stroke-dasharray:none;stroke-opacity:1"
         d="m 1021.72,514.922 -2.5,-14.41 -7.34,-12.703 -11.25,-9.45 -13.79,-5.039 h -14.649 l -13.793,5.039 -11.207,9.45 -7.351,12.703 -2.539,14.41 2.539,14.418 7.351,12.691 11.207,9.449 13.793,5.04 h 14.649 l 13.79,-5.04 11.25,-9.449 7.34,-12.691 2.5,-14.418" /><path
         id="path104"
         style="fill:none;stroke:#0187ff;stroke-width:10.55350018;stroke-linecap:butt;stroke-linejoin:miter;stroke-miterlimit:4;stroke-dasharray:none;stroke-opacity:1"
         d="m 1649.88,440.621 -2.58,-14.449 -7.3,-12.692 -11.21,-9.421 -13.83,-5.039 h -14.65 l -13.75,5.039 -11.25,9.421 -7.34,12.692 -2.5,14.449 2.5,14.418 7.34,12.691 11.25,9.418 13.75,5.043 h 14.65 l 13.83,-5.043 11.21,-9.418 7.3,-12.691 2.58,-14.418" /><path
         id="path106"
         style="fill:none;stroke:#0187ff;stroke-width:10.55350018;stroke-linecap:butt;stroke-linejoin:miter;stroke-miterlimit:4;stroke-dasharray:none;stroke-opacity:1"
         d="m 2278.01,415.859 -2.58,-14.449 -7.3,-12.699 -11.22,-9.41 -13.78,-5.039 h -14.69 l -13.75,5.039 -11.25,9.41 -7.31,12.699 -2.54,14.449 2.54,14.411 7.31,12.699 11.25,9.41 13.75,5 h 14.69 l 13.78,-5 11.22,-9.41 7.3,-12.699 2.58,-14.411" /><path
         id="path108"
         style="fill:none;stroke:#0187ff;stroke-width:10.55350018;stroke-linecap:butt;stroke-linejoin:miter;stroke-miterlimit:4;stroke-dasharray:none;stroke-opacity:1"
         d="m 2906.13,329.141 -2.54,-14.45 -7.34,-12.703 -11.21,-9.406 -13.79,-5 h -14.65 l -13.79,5 -11.21,9.406 -7.34,12.703 -2.54,14.45 2.54,14.449 7.34,12.699 11.21,9.41 13.79,5 h 14.65 l 13.79,-5 11.21,-9.41 7.34,-12.699 2.54,-14.449" /><path
         id="path110"
         style="fill:none;stroke:#0187ff;stroke-width:10.55350018;stroke-linecap:butt;stroke-linejoin:miter;stroke-miterlimit:4;stroke-dasharray:none;stroke-opacity:1"
         d="m 3534.3,309.34 -2.58,-14.461 -7.34,-12.688 -11.22,-9.421 -13.75,-5 h -14.68 l -13.75,5 -11.25,9.421 -7.35,12.688 -2.54,14.461 2.54,14.449 7.35,12.66 11.25,9.41 13.75,5.039 h 14.68 l 13.75,-5.039 11.22,-9.41 7.34,-12.66 2.58,-14.449" /><g
         transform="scale(10)"
         id="g112"><text
           id="text116"
           style="font-style:italic;font-variant:normal;font-size:13.13329983px;font-family:'Times New Roman';-inkscape-font-specification:TimesNewRomanPS-ItalicMT;writing-mode:lr-tb;fill:#000000;fill-opacity:1;fill-rule:nonzero;stroke:none"
           transform="matrix(1,0,0,-1,100.013,65.2973)"><tspan
             id="tspan114"
             y="0"
             x="0">K</tspan></text>
<text
           id="text120"
           style="font-variant:normal;font-weight:normal;font-size:9.38090038px;font-family:'Times New Roman';-inkscape-font-specification:TimesNewRomanPSMT;writing-mode:lr-tb;fill:#000000;fill-opacity:1;fill-rule:nonzero;stroke:none"
           transform="matrix(1,0,0,-1,109.15948,61.07582)"><tspan
             id="tspan118"
             y="0"
             x="0 4.6904502 9.3809004">opt</tspan></text>
<text
           id="text124"
           style="font-variant:normal;font-weight:normal;font-size:13.13329983px;font-family:'Times New Roman';-inkscape-font-specification:TimesNewRomanPSMT;writing-mode:lr-tb;fill:#000000;fill-opacity:1;fill-rule:nonzero;stroke:none"
           transform="matrix(1,0,0,-1,122.52708,65.2973)"><tspan
             id="tspan122"
             y="0"
             x="0 7.4071813 10.690506">= 2</tspan></text>
<text
           id="text128"
           style="font-style:italic;font-variant:normal;font-size:13.13329983px;font-family:'Times New Roman';-inkscape-font-specification:TimesNewRomanPS-ItalicMT;writing-mode:lr-tb;fill:#000000;fill-opacity:1;fill-rule:nonzero;stroke:none"
           transform="matrix(1,0,0,-1,183.24158,0.0903)"><tspan
             id="tspan126"
             y="0"
             x="0">K</tspan></text>
<text
           id="text132"
           style="font-style:italic;font-variant:normal;font-size:13.13329983px;font-family:'Times New Roman';-inkscape-font-specification:TimesNewRomanPS-ItalicMT;writing-mode:lr-tb;fill:#000000;fill-opacity:1;fill-rule:nonzero;stroke:none"
           transform="matrix(0,1,1,0,8.6957,142.883)"><tspan
             id="tspan130"
             y="0"
             x="0">W</tspan></text>
<text
           id="text136"
           style="font-style:italic;font-variant:normal;font-size:8.53662014px;font-family:'Times New Roman';-inkscape-font-specification:TimesNewRomanPS-ItalicMT;writing-mode:lr-tb;fill:#000000;fill-opacity:1;fill-rule:nonzero;stroke:none"
           transform="matrix(0,1,1,0,11.32226,153.8357)"><tspan
             id="tspan134"
             y="0"
             x="0">K</tspan></text>
</g></g></g></svg>